<?xml version="1.0" encoding="UTF-8" standalone="no"?>
<svg
   xmlns:dc="http://purl.org/dc/elements/1.1/"
   xmlns:cc="http://creativecommons.org/ns#"
   xmlns:rdf="http://www.w3.org/1999/02/22-rdf-syntax-ns#"
   xmlns:svg="http://www.w3.org/2000/svg"
   xmlns="http://www.w3.org/2000/svg"
   viewBox="0 0 1469.84 623.98669"
   height="623.98669"
   width="1469.84"
   xml:space="preserve"
   id="svg2"
   version="1.1"><metadata
     id="metadata8"><rdf:RDF><cc:Work
         rdf:about=""><dc:format>image/svg+xml</dc:format><dc:type
           rdf:resource="http://purl.org/dc/dcmitype/StillImage" /></cc:Work></rdf:RDF></metadata><defs
     id="defs6" /><g
     transform="matrix(1.3333333,0,0,-1.3333333,0,623.98667)"
     id="g10"><g
       transform="scale(0.1)"
       id="g12"><path
         id="path14"
         style="fill:#1e7bc1;fill-opacity:1;fill-rule:nonzero;stroke:none"
         d="M 355.328,952.75 H 162.492 V 785.91 h 198.254 c 73.656,0 118.059,25.988 118.059,82.32 v 2.161 c 0,50.918 -37.895,82.359 -123.477,82.359 z m 81.238,220.99 c 0,49.82 -38.992,77.98 -109.414,77.98 h -164.66 v -160.31 h 153.824 c 73.68,0 120.25,23.83 120.25,80.17 z M -0.00390625,1397.99 H 352.074 c 86.649,0 154.914,-23.84 198.254,-67.18 34.641,-34.66 51.985,-76.91 51.985,-128.92 v -2.16 c 0,-85.58 -45.5,-133.24 -99.672,-163.58 87.742,-33.58 141.918,-84.502 141.918,-186.33 v -2.16 c 0,-138.668 -112.672,-208 -283.813,-208 H -0.00390625 v 758.33" /><path
         id="path16"
         style="fill:#1e7bc1;fill-opacity:1;fill-rule:nonzero;stroke:none"
         d="m 1085.45,1397.99 h 166.81 V 791.32 h 378.09 V 639.66 h -544.9 v 758.33" /><path
         id="path18"
         style="fill:#1e7bc1;fill-opacity:1;fill-rule:nonzero;stroke:none"
         d="m 2025.74,964.652 v 433.338 h 166.85 V 969 c 0,-123.5 61.75,-187.418 163.56,-187.418 101.83,0 163.58,61.75 163.58,182 v 434.408 h 166.85 V 970.07 c 0,-229.672 -128.93,-342.34 -332.59,-342.34 -203.65,0 -328.25,113.77 -328.25,336.922" /><path
         id="path20"
         style="fill:#1e7bc1;fill-opacity:1;fill-rule:nonzero;stroke:none"
         d="m 3159.97,1397.99 h 571.97 v -148.44 h -406.22 v -153.81 h 357.49 V 947.332 H 3325.72 V 788.059 h 411.64 V 639.66 h -577.39 v 758.33" /><path
         id="path22"
         style="fill:#4f4c4c;fill-opacity:1;fill-rule:nonzero;stroke:none"
         d="m 4177.15,1016.66 v 2.17 c 0,215.57 167.91,392.15 397.57,392.15 136.51,0 218.83,-36.83 297.93,-103.99 l -105.09,-126.77 c -58.49,48.76 -110.48,76.91 -198.25,76.91 -121.32,0 -217.73,-107.22 -217.73,-236.15 v -2.15 c 0,-138.67 95.32,-240.498 229.66,-240.498 60.65,0 114.83,15.148 157.07,45.5 v 108.32 H 4570.4 v 144.078 h 329.31 V 746.922 c -77.97,-66.082 -185.23,-120.25 -323.89,-120.25 -236.15,0 -398.67,165.75 -398.67,389.988" /><path
         id="path24"
         style="fill:#4f4c4c;fill-opacity:1;fill-rule:nonzero;stroke:none"
         d="m 5699.21,1029.66 c 81.24,0 127.83,43.31 127.83,107.25 v 2.16 c 0,71.49 -49.83,108.33 -131.08,108.33 h -165.75 v -217.74 z m -335.82,368.33 h 346.66 c 96.41,0 171.16,-27.09 220.99,-76.94 42.24,-42.25 65,-101.81 65,-173.33 v -2.16 c 0,-122.41 -66.1,-199.318 -162.49,-235.08 l 185.23,-270.82 h -195 L 5661.29,882.32 H 5530.21 V 639.66 h -166.82 v 758.33" /><path
         id="path26"
         style="fill:#4f4c4c;fill-opacity:1;fill-rule:nonzero;stroke:none"
         d="m 6885.42,957.07 -100.76,245.92 -100.75,-245.92 z m -175.51,446.33 h 153.84 l 324.99,-763.74 h -174.42 l -69.33,170.07 h -320.67 l -69.33,-170.07 h -170.07 l 324.99,763.74" /><path
         id="path28"
         style="fill:#4f4c4c;fill-opacity:1;fill-rule:nonzero;stroke:none"
         d="m 7609.06,1397.99 h 153.81 l 355.34,-466.908 v 466.908 h 164.65 V 639.66 h -141.92 l -367.23,482.07 V 639.66 h -164.65 v 758.33" /><path
         id="path30"
         style="fill:#4f4c4c;fill-opacity:1;fill-rule:nonzero;stroke:none"
         d="m 8775.76,1397.99 h 166.82 V 639.66 h -166.82 v 758.33" /><path
         id="path32"
         style="fill:#4f4c4c;fill-opacity:1;fill-rule:nonzero;stroke:none"
         d="M 9612.06,1244.14 H 9381.3 v 153.85 h 628.3 V 1244.14 H 9778.88 V 639.66 h -166.82 v 604.48" /><path
         id="path34"
         style="fill:#4f4c4c;fill-opacity:1;fill-rule:nonzero;stroke:none"
         d="m 10440.8,1397.99 h 571.9 v -148.44 h -406.2 V 1095.74 H 10964 V 947.332 h -357.5 V 788.059 h 411.7 V 639.66 h -577.4 v 758.33" /><path
         id="path36"
         style="fill:#4f4c4c;fill-opacity:1;fill-rule:nonzero;stroke:none"
         d="M 2501.09,245.762 V 64.8008 h 51.02 c 54.04,0 90.51,36.4612 90.51,89.6482 v 0.84 c 0,53.172 -36.47,90.473 -90.51,90.473 z m -66.08,59.636 h 117.1 c 94.36,0 159.58,-64.738 159.58,-149.226 v -0.883 c 0,-84.4999 -65.22,-150.12884 -159.58,-150.12884 h -117.1 V 305.398" /><path
         id="path38"
         style="fill:#4f4c4c;fill-opacity:1;fill-rule:nonzero;stroke:none"
         d="m 2998.54,130.852 -39.9,97.359 -39.87,-97.359 z m -69.48,176.687 h 60.89 L 3118.64,5.16016 h -69.05 L 3022.14,72.5117 H 2895.17 L 2867.72,5.16016 h -67.35 L 2929.06,307.539" /><path
         id="path40"
         style="fill:#4f4c4c;fill-opacity:1;fill-rule:nonzero;stroke:none"
         d="m 3273.4,244.512 h -91.37 v 60.886 h 248.78 v -60.886 h -91.36 V 5.16016 H 3273.4 V 244.512" /><path
         id="path42"
         style="fill:#4f4c4c;fill-opacity:1;fill-rule:nonzero;stroke:none"
         d="m 3692.41,130.852 -39.91,97.359 -39.87,-97.359 z m -69.49,176.687 h 60.89 L 3812.5,5.16016 h -69.05 L 3716,72.5117 H 3589.03 L 3561.58,5.16016 h -67.35 L 3622.92,307.539" /><path
         id="path44"
         style="fill:#f17d15;fill-opacity:1;fill-rule:nonzero;stroke:none"
         d="m 4123.32,155.699 v 0.883 c 0,35.16 28.75,63.449 63.91,63.449 35.18,0 63.92,-28.289 63.92,-63.449 v -0.883 c 0,-35.16 -28.74,-63.449 -63.92,-63.449 -35.16,0 -63.91,28.289 -63.91,63.449" /><path
         id="path46"
         style="fill:#4f4c4c;fill-opacity:1;fill-rule:nonzero;stroke:none"
         d="m 4565.01,305.398 h 66.05 V 5.16016 h -66.05 V 305.398" /><path
         id="path48"
         style="fill:#4f4c4c;fill-opacity:1;fill-rule:nonzero;stroke:none"
         d="m 4783.26,305.398 h 60.93 l 140.69,-184.859 v 184.859 h 65.19 V 5.16016 h -56.18 L 4848.48,196.02 V 5.16016 h -65.22 V 305.398" /><path
         id="path50"
         style="fill:#4f4c4c;fill-opacity:1;fill-rule:nonzero;stroke:none"
         d="m 5178.66,48.9219 39.03,46.7187 c 27.02,-22.3008 55.33,-36.4101 89.62,-36.4101 27.04,0 43.34,10.6797 43.34,28.2812 v 0.8281 c 0,16.7812 -10.29,25.3322 -60.47,38.1912 -60.48,15.469 -99.52,32.188 -99.52,91.778 v 0.89 c 0,54.481 43.76,90.481 105.09,90.481 43.76,0 81.05,-13.711 111.52,-38.129 l -34.32,-49.801 c -26.59,18.441 -52.74,29.629 -78.06,29.629 -25.31,0 -38.6,-11.609 -38.6,-26.199 v -0.828 c 0,-19.743 12.87,-26.204 64.78,-39.481 60.89,-15.832 95.22,-37.719 95.22,-90.0624 v -0.8398 c 0,-59.6368 -45.48,-93.078175 -110.25,-93.078175 -45.48,0 -91.37,15.828175 -127.38,48.031275" /><path
         id="path52"
         style="fill:#4f4c4c;fill-opacity:1;fill-rule:nonzero;stroke:none"
         d="m 5553.88,305.398 h 66.05 V 5.16016 h -66.05 V 305.398" /><path
         id="path54"
         style="fill:#4f4c4c;fill-opacity:1;fill-rule:nonzero;stroke:none"
         d="m 5758.86,154.449 v 0.84 c 0,85.371 66.48,155.27 157.41,155.27 54.04,0 86.65,-14.59 117.96,-41.2 l -41.62,-50.16 c -23.16,19.27 -43.76,30.473 -78.48,30.473 -48.05,0 -86.23,-42.512 -86.23,-93.5 v -0.883 c 0,-54.91 37.76,-95.2304 90.95,-95.2304 24.01,0 45.45,5.9922 62.19,18.0312 v 42.8592 h -66.49 v 57.043 h 130.41 V 47.6094 C 6014.07,21.4688 5971.59,0 5916.69,0 c -93.5,0 -157.83,65.6406 -157.83,154.449" /><path
         id="path56"
         style="fill:#4f4c4c;fill-opacity:1;fill-rule:nonzero;stroke:none"
         d="m 6185.52,305.398 h 66.07 V 186.582 h 121.82 v 118.816 h 66.05 V 5.16016 h -66.05 V 125.699 H 6251.59 V 5.16016 h -66.07 V 305.398" /><path
         id="path58"
         style="fill:#4f4c4c;fill-opacity:1;fill-rule:nonzero;stroke:none"
         d="m 6658.55,244.512 h -91.37 v 60.886 h 248.78 V 244.512 H 6724.6 V 5.16016 h -66.05 V 244.512" /><path
         id="path60"
         style="fill:#4f4c4c;fill-opacity:1;fill-rule:nonzero;stroke:none"
         d="m 6916.68,48.9219 39.04,46.7187 c 27.01,-22.3008 55.32,-36.4101 89.62,-36.4101 27.04,0 43.34,10.6797 43.34,28.2812 v 0.8281 c 0,16.7812 -10.29,25.3322 -60.48,38.1912 -60.47,15.469 -99.52,32.188 -99.52,91.778 v 0.89 c 0,54.481 43.76,90.481 105.1,90.481 43.75,0 81.05,-13.711 111.52,-38.129 l -34.33,-49.801 c -26.59,18.441 -52.74,29.629 -78.05,29.629 -25.32,0 -38.6,-11.609 -38.6,-26.199 v -0.828 c 0,-19.743 12.87,-26.204 64.77,-39.481 60.89,-15.832 95.22,-37.719 95.22,-90.0624 v -0.8398 c 0,-59.6368 -45.47,-93.078175 -110.24,-93.078175 -45.48,0 -91.37,15.828175 -127.39,48.031275" /><path
         id="path62"
         style="fill:#f17d15;fill-opacity:1;fill-rule:nonzero;stroke:none"
         d="m 7459.14,155.699 v 0.883 c 0,35.16 28.75,63.449 63.91,63.449 35.19,0 63.92,-28.289 63.92,-63.449 v -0.883 c 0,-35.16 -28.73,-63.449 -63.92,-63.449 -35.16,0 -63.91,28.289 -63.91,63.449" /><path
         id="path64"
         style="fill:#4f4c4c;fill-opacity:1;fill-rule:nonzero;stroke:none"
         d="m 8061.69,130.852 -39.9,97.359 -39.88,-97.359 z m -69.49,176.687 h 60.89 L 8181.78,5.16016 h -69.04 L 8085.29,72.5117 H 7958.31 L 7930.86,5.16016 h -67.35 L 7992.2,307.539" /><path
         id="path66"
         style="fill:#4f4c4c;fill-opacity:1;fill-rule:nonzero;stroke:none"
         d="m 8305.21,305.398 h 60.92 l 140.69,-184.859 v 184.859 h 65.19 V 5.16016 h -56.18 L 8370.42,196.02 V 5.16016 h -65.21 V 305.398" /><path
         id="path68"
         style="fill:#4f4c4c;fill-opacity:1;fill-rule:nonzero;stroke:none"
         d="m 8893.61,130.852 -39.9,97.359 -39.87,-97.359 z m -69.49,176.687 h 60.9 L 9013.7,5.16016 h -69.04 L 8917.21,72.5117 H 8790.24 L 8762.79,5.16016 h -67.35 L 8824.12,307.539" /><path
         id="path70"
         style="fill:#4f4c4c;fill-opacity:1;fill-rule:nonzero;stroke:none"
         d="m 9137.13,305.398 h 66.08 V 65.2188 h 149.68 V 5.16016 H 9137.13 V 305.398" /><path
         id="path72"
         style="fill:#4f4c4c;fill-opacity:1;fill-rule:nonzero;stroke:none"
         d="m 9508.53,123.559 -115.38,181.839 h 77.2 l 71.62,-120.527 72.93,120.527 h 75.06 L 9574.58,124.809 V 5.16016 h -66.05 V 123.559" /><path
         id="path74"
         style="fill:#4f4c4c;fill-opacity:1;fill-rule:nonzero;stroke:none"
         d="m 9878.19,244.512 h -91.37 v 60.886 h 248.78 v -60.886 h -91.36 V 5.16016 h -66.05 V 244.512" /><path
         id="path76"
         style="fill:#4f4c4c;fill-opacity:1;fill-rule:nonzero;stroke:none"
         d="m 10166.3,305.398 h 66.1 V 5.16016 h -66.1 V 305.398" /><path
         id="path78"
         style="fill:#4f4c4c;fill-opacity:1;fill-rule:nonzero;stroke:none"
         d="m 10371.3,154.449 v 0.84 c 0,85.371 64.3,155.27 156.6,155.27 56.6,0 90.5,-18.86 118.3,-46.309 l -42,-48.488 c -23.1,21.039 -46.7,33.91 -76.8,33.91 -50.6,0 -87,-42.043 -87,-93.5 v -0.883 c 0,-51.469 35.6,-94.3984 87,-94.3984 34.4,0 55.4,13.7617 79,35.2188 l 42,-42.5 C 10617.5,20.582 10583.2,0 10525.3,0 c -88.3,0 -154,68.1914 -154,154.449" /><path
         id="path80"
         style="fill:#4f4c4c;fill-opacity:1;fill-rule:nonzero;stroke:none"
         d="m 10757.7,48.9219 39,46.7187 c 27,-22.3008 55.3,-36.4101 89.6,-36.4101 27.1,0 43.4,10.6797 43.4,28.2812 v 0.8281 c 0,16.7812 -10.3,25.3322 -60.5,38.1912 -60.5,15.469 -99.5,32.188 -99.5,91.778 v 0.89 c 0,54.481 43.7,90.481 105.1,90.481 43.7,0 81,-13.711 111.5,-38.129 L 10952,221.75 c -26.6,18.441 -52.8,29.629 -78.1,29.629 -25.3,0 -38.6,-11.609 -38.6,-26.199 v -0.828 c 0,-19.743 12.9,-26.204 64.8,-39.481 60.9,-15.832 95.2,-37.719 95.2,-90.0624 v -0.8398 c 0,-59.6368 -45.5,-93.078175 -110.2,-93.078175 -45.5,0 -91.4,15.828175 -127.4,48.031275" /><path
         id="path82"
         style="fill:#1e7bc1;fill-opacity:1;fill-rule:nonzero;stroke:none"
         d="M 10276.9,2773.96 9554.06,3698.06 8716.82,3394.84 7924.47,4679.89 6694.21,2658.46 5922.7,3322.64 4546.5,1830.54 h 116.36 l 1289.91,1134.13 775.73,-515.12 1183.22,1416.34 762.09,-900.38 805.21,212.46 754.88,-658.11 338.3,-689.32 h 116.4 l -411.7,943.42" /><path
         id="path84"
         style="fill:#e9e9e9;fill-opacity:1;fill-rule:nonzero;stroke:none"
         d="m 10233.9,1830.54 h -5286.07 158.26 l 964.57,801.39 688.86,-399.1 1214.74,1215.42 591.15,-772.88 748.02,182.36 644.73,-555.68 209.84,-471.51 h 65.9" /><path
         id="path86"
         style="fill:#f17d15;fill-opacity:1;fill-rule:nonzero;stroke:none"
         d="m 5204.92,1830.54 -128.08,15.62 1495.66,1710.27 699.68,-607.73 675.73,278.1 602,-755.82 1104.77,1802.57 513.72,-1903.57 295.3,-533.3 -118.5,-6.14 -278.1,505.38 -450.89,1670.72 -1054.89,-1721.2 -646.91,812.18 -662.5,-272.58 -669.09,581.16 -1377.9,-1575.66" /><path
         id="path88"
         style="fill:#4f4c4c;fill-opacity:1;fill-rule:nonzero;stroke:none"
         d="M 11023.8,1816.68 H 4211.3 v 40.01 h 6812.5 v -40.01" /></g></g></svg>