<?xml version="1.0" encoding="UTF-8" standalone="no"?>
<svg
   xmlns:dc="http://purl.org/dc/elements/1.1/"
   xmlns:cc="http://creativecommons.org/ns#"
   xmlns:rdf="http://www.w3.org/1999/02/22-rdf-syntax-ns#"
   xmlns:svg="http://www.w3.org/2000/svg"
   xmlns="http://www.w3.org/2000/svg"
   viewBox="0 0 1469.3066 623.76001"
   height="623.76001"
   width="1469.3066"
   xml:space="preserve"
   id="svg2"
   version="1.1"><metadata
     id="metadata8"><rdf:RDF><cc:Work
         rdf:about=""><dc:format>image/svg+xml</dc:format><dc:type
           rdf:resource="http://purl.org/dc/dcmitype/StillImage" /></cc:Work></rdf:RDF></metadata><defs
     id="defs6" /><g
     transform="matrix(1.3333333,0,0,-1.3333333,0,623.76)"
     id="g10"><g
       transform="scale(0.1)"
       id="g12"><path
         id="path14"
         style="fill:#ffffff;fill-opacity:1;fill-rule:nonzero;stroke:none"
         d="M 355.199,952.43 H 162.438 V 785.602 h 198.179 c 73.625,0 118.016,26.027 118.016,82.32 v 2.129 c 0,50.929 -37.879,82.379 -123.434,82.379 z m 81.207,220.89 c 0,49.77 -38.972,77.94 -109.375,77.94 H 162.438 v -160.22 h 153.765 c 73.652,0 120.203,23.8 120.203,80.09 z M 0,1397.48 h 351.949 c 86.617,0 154.86,-23.8 198.18,-67.12 34.629,-34.68 51.969,-76.91 51.969,-128.93 v -2.13 c 0,-85.55 -45.485,-133.2 -99.641,-163.56 87.715,-33.53 141.871,-84.459 141.871,-186.201 v -2.187 C 644.328,708.738 531.695,639.43 360.617,639.43 H 0 v 758.05" /><path
         id="path16"
         style="fill:#ffffff;fill-opacity:1;fill-rule:nonzero;stroke:none"
         d="m 1085.05,1397.48 h 166.76 V 791.012 h 377.96 V 639.43 h -544.72 v 758.05" /><path
         id="path18"
         style="fill:#ffffff;fill-opacity:1;fill-rule:nonzero;stroke:none"
         d="m 2025.01,964.301 v 433.179 h 166.78 v -428.8 c 0,-123.52 61.74,-187.36 163.51,-187.36 101.8,0 163.53,61.711 163.53,181.942 v 434.218 h 166.78 V 969.719 c 0,-229.578 -128.88,-342.207 -332.47,-342.207 -203.57,0 -328.13,113.718 -328.13,336.789" /><path
         id="path20"
         style="fill:#ffffff;fill-opacity:1;fill-rule:nonzero;stroke:none"
         d="m 3158.86,1397.48 h 571.76 v -148.35 h -406.07 v -153.82 h 357.36 V 947.012 H 3324.55 V 787.781 h 411.49 V 639.43 h -577.18 v 758.05" /><path
         id="path22"
         style="fill:#ffffff;fill-opacity:1;fill-rule:nonzero;stroke:none"
         d="m 4175.7,1016.27 v 2.18 c 0,215.48 167.85,391.99 397.43,391.99 136.45,0 218.75,-36.76 297.82,-103.93 l -105.06,-126.74 c -58.47,48.74 -110.43,76.91 -198.17,76.91 -121.28,0 -217.67,-107.22 -217.67,-236.04 v -2.19 c 0,-138.61 95.3,-240.411 229.59,-240.411 60.63,0 114.79,15.152 157.02,45.461 V 931.809 H 4568.8 V 1075.84 H 4898 V 746.648 c -77.95,-66.027 -185.17,-120.179 -323.78,-120.179 -236.06,0 -398.52,165.679 -398.52,389.801" /><path
         id="path24"
         style="fill:#ffffff;fill-opacity:1;fill-rule:nonzero;stroke:none"
         d="m 5697.18,1029.29 c 81.21,0 127.79,43.32 127.79,107.21 v 2.13 c 0,71.5 -49.81,108.31 -131.04,108.31 h -165.69 v -217.65 z m -335.7,368.19 h 346.53 c 96.39,0 171.11,-27.08 220.92,-76.91 42.22,-42.23 64.98,-101.75 64.98,-173.29 v -2.14 c 0,-122.36 -66.08,-199.269 -162.43,-234.992 L 6016.64,639.43 H 5821.71 L 5659.28,882.031 H 5528.24 V 639.43 h -166.76 v 758.05" /><path
         id="path26"
         style="fill:#ffffff;fill-opacity:1;fill-rule:nonzero;stroke:none"
         d="M 6882.97,956.699 6782.24,1202.58 6681.53,956.699 Z M 6707.52,1402.9 h 153.79 l 324.87,-763.47 h -174.36 l -69.31,170.011 h -320.55 l -69.3,-170.011 h -170.01 l 324.87,763.47" /><path
         id="path28"
         style="fill:#ffffff;fill-opacity:1;fill-rule:nonzero;stroke:none"
         d="m 7606.34,1397.48 h 153.76 l 355.2,-466.71 v 466.71 h 164.6 V 639.43 h -141.87 l -367.1,481.92 V 639.43 h -164.59 v 758.05" /><path
         id="path30"
         style="fill:#ffffff;fill-opacity:1;fill-rule:nonzero;stroke:none"
         d="m 8772.65,1397.48 h 166.76 V 639.43 h -166.76 v 758.05" /><path
         id="path32"
         style="fill:#ffffff;fill-opacity:1;fill-rule:nonzero;stroke:none"
         d="m 9608.65,1243.71 h -230.68 v 153.77 h 628.13 V 1243.71 H 9775.41 V 639.43 h -166.76 v 604.28" /><path
         id="path34"
         style="fill:#ffffff;fill-opacity:1;fill-rule:nonzero;stroke:none"
         d="m 10437,1397.48 h 571.8 v -148.35 h -406.1 v -153.82 h 357.4 V 947.012 h -357.4 V 787.781 h 411.5 V 639.43 H 10437 v 758.05" /><path
         id="path36"
         style="fill:#ffffff;fill-opacity:1;fill-rule:nonzero;stroke:none"
         d="M 2500.19,245.672 V 64.7813 h 51 c 54.02,0 90.47,36.4377 90.47,89.6097 v 0.828 c 0,53.172 -36.45,90.453 -90.47,90.453 z m -66.06,59.617 h 117.06 c 94.32,0 159.52,-64.719 159.52,-149.187 v -0.883 c 0,-84.4573 -65.2,-150.05884 -159.52,-150.05884 H 2434.13 V 305.289" /><path
         id="path38"
         style="fill:#ffffff;fill-opacity:1;fill-rule:nonzero;stroke:none"
         d="m 2997.49,130.801 -39.89,97.32 -39.86,-97.32 z m -69.46,176.629 h 60.87 L 3117.54,5.16016 h -69.02 L 3021.08,72.4805 H 2894.16 L 2866.72,5.16016 h -67.33 L 2928.03,307.43" /><path
         id="path40"
         style="fill:#ffffff;fill-opacity:1;fill-rule:nonzero;stroke:none"
         d="m 3272.21,244.422 h -91.32 v 60.867 h 248.68 v -60.867 h -91.33 V 5.16016 h -66.03 V 244.422" /><path
         id="path42"
         style="fill:#ffffff;fill-opacity:1;fill-rule:nonzero;stroke:none"
         d="m 3691.05,130.801 -39.89,97.32 -39.86,-97.32 z m -69.47,176.629 h 60.88 L 3811.09,5.16016 h -69.01 L 3714.64,72.4805 H 3587.71 L 3560.27,5.16016 h -67.32 L 3621.58,307.43" /><path
         id="path44"
         style="fill:#ffffff;fill-opacity:1;fill-rule:nonzero;stroke:none"
         d="m 4121.8,155.629 v 0.891 c 0,35.152 28.75,63.429 63.89,63.429 35.18,0 63.9,-28.277 63.9,-63.429 v -0.891 c 0,-35.141 -28.72,-63.4102 -63.9,-63.4102 -35.14,0 -63.89,28.2692 -63.89,63.4102" /><path
         id="path46"
         style="fill:#ffffff;fill-opacity:1;fill-rule:nonzero;stroke:none"
         d="m 4563.31,305.289 h 66.03 V 5.16016 h -66.03 V 305.289" /><path
         id="path48"
         style="fill:#ffffff;fill-opacity:1;fill-rule:nonzero;stroke:none"
         d="m 4781.49,305.289 h 60.9 l 140.64,-184.801 v 184.801 h 65.17 V 5.16016 h -56.16 L 4846.69,195.941 V 5.16016 h -65.2 V 305.289" /><path
         id="path50"
         style="fill:#ffffff;fill-opacity:1;fill-rule:nonzero;stroke:none"
         d="m 5176.73,48.8984 39.03,46.711 c 27,-22.3008 55.3,-36.4102 89.59,-36.4102 27.02,0 43.32,10.6797 43.32,28.2813 v 0.8281 c 0,16.7734 -10.28,25.3004 -60.45,38.1714 -60.46,15.461 -99.48,32.18 -99.48,91.75 v 0.891 c 0,54.461 43.74,90.438 105.05,90.438 43.74,0 81.02,-13.7 111.48,-38.11 l -34.31,-49.777 c -26.58,18.43 -52.72,29.617 -78.03,29.617 -25.31,0 -38.58,-11.609 -38.58,-26.187 v -0.832 c 0,-19.739 12.86,-26.188 64.75,-39.469 60.87,-15.832 95.18,-37.699 95.18,-90.0315 v -0.8281 c 0,-59.6211 -45.46,-93.050775 -110.21,-93.050775 -45.46,0 -91.33,15.828175 -127.34,48.007775" /><path
         id="path52"
         style="fill:#ffffff;fill-opacity:1;fill-rule:nonzero;stroke:none"
         d="m 5551.83,305.289 h 66.02 V 5.16016 h -66.02 V 305.289" /><path
         id="path54"
         style="fill:#ffffff;fill-opacity:1;fill-rule:nonzero;stroke:none"
         d="m 5756.73,154.391 v 0.828 c 0,85.351 66.46,155.222 157.35,155.222 54.03,0 86.62,-14.582 117.92,-41.179 l -41.6,-50.141 c -23.15,19.258 -43.74,30.461 -78.45,30.461 -48.03,0 -86.2,-42.492 -86.2,-93.48 v -0.883 c 0,-54.879 37.75,-95.1799 90.91,-95.1799 24.01,0 45.44,5.9922 62.17,18.0195 V 120.91 h -66.46 v 57.02 h 130.36 V 47.5898 C 6011.85,21.4609 5969.39,0 5914.5,0 5821.04,0 5756.73,65.6094 5756.73,154.391" /><path
         id="path56"
         style="fill:#ffffff;fill-opacity:1;fill-rule:nonzero;stroke:none"
         d="m 6183.24,305.289 h 66.05 V 186.512 h 121.77 v 118.777 h 66.03 V 5.16016 h -66.03 V 125.641 H 6249.29 V 5.16016 h -66.05 V 305.289" /><path
         id="path58"
         style="fill:#ffffff;fill-opacity:1;fill-rule:nonzero;stroke:none"
         d="m 6656.07,244.422 h -91.33 v 60.867 h 248.69 V 244.422 H 6722.1 V 5.16016 h -66.03 V 244.422" /><path
         id="path60"
         style="fill:#ffffff;fill-opacity:1;fill-rule:nonzero;stroke:none"
         d="m 6914.11,48.8984 39.03,46.711 c 26.99,-22.3008 55.29,-36.4102 89.61,-36.4102 27,0 43.3,10.6797 43.3,28.2813 v 0.8281 c 0,16.7734 -10.29,25.3004 -60.46,38.1714 -60.45,15.461 -99.48,32.18 -99.48,91.75 v 0.891 c 0,54.461 43.74,90.438 105.05,90.438 43.74,0 81.02,-13.7 111.49,-38.11 l -34.32,-49.777 c -26.58,18.43 -52.72,29.617 -78.03,29.617 -25.3,0 -38.58,-11.609 -38.58,-26.187 v -0.832 c 0,-19.739 12.86,-26.188 64.72,-39.469 60.9,-15.832 95.22,-37.699 95.22,-90.0315 v -0.8281 c 0,-59.6211 -45.46,-93.050775 -110.21,-93.050775 -45.46,0 -91.34,15.828175 -127.34,48.007775" /><path
         id="path62"
         style="fill:#ffffff;fill-opacity:1;fill-rule:nonzero;stroke:none"
         d="m 7456.37,155.629 v 0.891 c 0,35.152 28.75,63.429 63.89,63.429 35.18,0 63.9,-28.277 63.9,-63.429 v -0.891 c 0,-35.141 -28.72,-63.4102 -63.9,-63.4102 -35.14,0 -63.89,28.2692 -63.89,63.4102" /><path
         id="path64"
         style="fill:#ffffff;fill-opacity:1;fill-rule:nonzero;stroke:none"
         d="m 8058.71,130.801 -39.89,97.32 -39.86,-97.32 z m -69.47,176.629 h 60.87 L 8178.76,5.16016 h -69.03 L 8082.29,72.4805 H 7955.37 L 7927.93,5.16016 H 7860.6 L 7989.24,307.43" /><path
         id="path66"
         style="fill:#ffffff;fill-opacity:1;fill-rule:nonzero;stroke:none"
         d="m 8302.14,305.289 h 60.89 l 140.65,-184.801 v 184.801 h 65.16 V 5.16016 h -56.15 L 8367.33,195.941 V 5.16016 h -65.19 V 305.289" /><path
         id="path68"
         style="fill:#ffffff;fill-opacity:1;fill-rule:nonzero;stroke:none"
         d="m 8890.33,130.801 -39.88,97.32 -39.87,-97.32 z m -69.46,176.629 h 60.87 L 9010.38,5.16016 h -69.02 L 8913.92,72.4805 H 8786.99 L 8759.55,5.16016 h -67.32 L 8820.87,307.43" /><path
         id="path70"
         style="fill:#ffffff;fill-opacity:1;fill-rule:nonzero;stroke:none"
         d="m 9133.74,305.289 h 66.05 V 65.1992 h 149.63 V 5.16016 H 9133.74 V 305.289" /><path
         id="path72"
         style="fill:#ffffff;fill-opacity:1;fill-rule:nonzero;stroke:none"
         d="m 9505.03,123.52 -115.34,181.769 h 77.17 l 71.6,-120.488 72.89,120.488 h 75.04 L 9571.05,124.77 V 5.16016 h -66.02 V 123.52" /><path
         id="path74"
         style="fill:#ffffff;fill-opacity:1;fill-rule:nonzero;stroke:none"
         d="m 9874.55,244.422 h -91.34 v 60.867 h 248.69 v -60.867 h -91.33 V 5.16016 h -66.02 V 244.422" /><path
         id="path76"
         style="fill:#ffffff;fill-opacity:1;fill-rule:nonzero;stroke:none"
         d="m 10162.6,305.289 h 66 V 5.16016 h -66 V 305.289" /><path
         id="path78"
         style="fill:#ffffff;fill-opacity:1;fill-rule:nonzero;stroke:none"
         d="m 10367.5,154.391 v 0.828 c 0,85.351 64.3,155.222 156.5,155.222 56.6,0 90.4,-18.839 118.3,-46.281 l -42,-48.48 c -23.2,21.031 -46.7,33.902 -76.8,33.902 -50.6,0 -87,-42.031 -87,-93.48 v -0.883 c 0,-51.438 35.6,-94.3479 87,-94.3479 34.3,0 55.4,13.75 78.9,35.1992 l 42.1,-42.4883 C 10613.6,20.5703 10579.3,0 10521.4,0 c -88.3,0 -153.9,68.1602 -153.9,154.391" /><path
         id="path80"
         style="fill:#ffffff;fill-opacity:1;fill-rule:nonzero;stroke:none"
         d="m 10753.7,48.8984 39,46.711 c 27,-22.3008 55.3,-36.4102 89.7,-36.4102 27,0 43.3,10.6797 43.3,28.2813 v 0.8281 c 0,16.7734 -10.3,25.3004 -60.5,38.1714 -60.5,15.461 -99.5,32.18 -99.5,91.75 v 0.891 c 0,54.461 43.8,90.438 105.1,90.438 43.7,0 81,-13.7 111.5,-38.11 l -34.4,-49.777 c -26.5,18.43 -52.7,29.617 -78,29.617 -25.3,0 -38.6,-11.609 -38.6,-26.187 v -0.832 c 0,-19.739 12.9,-26.188 64.8,-39.469 60.8,-15.832 95.2,-37.699 95.2,-90.0315 v -0.8281 c 0,-59.6211 -45.5,-93.050775 -110.2,-93.050775 -45.5,0 -91.4,15.828175 -127.4,48.007775" /><path
         id="path82"
         style="fill:#ffffff;fill-opacity:1;fill-rule:nonzero;stroke:none"
         d="m 7908.86,3864.51 761.82,-900.06 158.32,41.77 329.62,548.54 -444.93,-161.14 -792.08,1284.59 -891.03,-1467.35 192.09,-166.84 686.19,820.49" /><path
         id="path84"
         style="fill:#ffffff;fill-opacity:1;fill-rule:nonzero;stroke:none"
         d="m 9892.5,2813.36 -176.53,655.45 -165.36,227.92 -106.21,-38.46 -349.3,-581.84 380.5,100.4 416.9,-363.47" /><path
         id="path86"
         style="fill:#ffffff;fill-opacity:1;fill-rule:nonzero;stroke:none"
         d="m 7108.1,2892.99 -173.87,151.03 -242.43,-386.51 -405.02,349.74 -148.26,-169.55 587.56,-389.02 382.02,444.31" /><path
         id="path88"
         style="fill:#ffffff;fill-opacity:1;fill-rule:nonzero;stroke:none"
         d="m 6580.45,3404.98 668.85,-580.95 662.26,272.48 646.67,-811.89 1054.52,1720.59 450.65,-1670.13 263.7,-479.06 h -174.3 l -198.23,445.22 -644.5,555.47 -425.48,-103.73 -321.68,-528.87 -663.18,819.91 -529.87,-210.06 -612.77,-601.92 -688.62,398.95 -456.34,-393.33 -333.75,-381.64 h -52.49 z m 4092.85,-1548.96 -400.1,916.95 -262.4,335.48 133.4,-496.11 86,-93.38 325.4,-662.94 h -106.7 l -284.2,513.12 -513.5,1902.88 -1104.37,-1801.92 -601.78,755.55 -675.5,-278.01 -699.41,607.52 -1485.93,-1699.14 h -393.32 l 1259.73,1107.59 31.91,-21.18 161.28,186.84 -223.24,192.19 -1351.62,-1465.44 h -359.17 v -39.99 h 6810.02 v 39.99 h -346.5" /><path
         id="path90"
         style="fill:#ffffff;fill-opacity:1;fill-rule:nonzero;stroke:none"
         d="m 7663.12,3150.55 293.26,123.3 586.53,-741.49 103.31,169.96 -83.89,-27.9 -590.95,772.6 -308.26,-296.47" /></g></g></svg>